<?xml version="1.0" encoding="utf-8"?>
<!-- Generator: Adobe Illustrator 20.1.0, SVG Export Plug-In . SVG Version: 6.00 Build 0)  -->
<svg version="1.1" id="Layer_1" xmlns="http://www.w3.org/2000/svg" xmlns:xlink="http://www.w3.org/1999/xlink" x="0px" y="0px"
	 viewBox="0 0 291.3 291.3" style="enable-background:new 0 0 291.3 291.3;" xml:space="preserve">
<style type="text/css">
	.st0{fill:#45415E;}
	.st1{fill:#FFFFFF;}
</style>
<path class="st0" d="M145.7,0c80.4,0,145.7,65.2,145.7,145.7c0,80.4-65.2,145.7-145.7,145.7S0,226.1,0,145.7C0,65.2,65.2,0,145.7,0z
	"/>
<path class="st1" d="M150.1,63.8c-51.3,0-77.2,35.6-77.2,65.3c0,18,7,34,22.1,40c2.5,1,4.7,0,5.4-2.6l2.2-8.4
	c0.7-2.6,0.4-3.5-1.5-5.8c-4.4-5-7.1-11.4-7.1-20.5c0-26.4,20.4-50.1,53.2-50.1c29,0,44.9,17.2,44.9,40.1
	c0,30.2-13.8,55.6-34.2,55.6c-11.3,0-19.8-9-17-20.2c3.2-13.2,9.5-27.5,9.5-37.1c0-8.5-4.7-15.7-14.6-15.7
	c-11.6,0-20.8,11.6-20.8,27.1c0,9.9,3.4,16.6,3.4,16.6l-13.9,57c-4.1,16.9-0.6,37.6-0.3,39.7c0.2,1.2,1.8,1.5,2.6,0.6
	c1.1-1.3,14.8-17.8,19.5-34.2c1.3-4.7,7.6-28.8,7.6-28.8c3.8,6.9,14.7,13,26.4,13c34.7,0,58.3-30.7,58.3-71.7
	C218.4,92.7,191.3,63.8,150.1,63.8z"/>
</svg>
